# xmcd CD database file
#
# Track frame offsets:
#	150
#	14373
#	33026
#	52825
#	70904
#	94660
#	108544
#	126518
#	147502
#	171302
#
# Disc length: 2655 seconds
#
# Revision: 0
# Processed by: cddbd v1.5.2PL0 Copyright (c) Steve Scherf et al.
# Submitted via: cdripper 1,0,39,0213
#
DISCID=880a5d0a
DTITLE=Travis Tritt - Country Club
DYEAR=1900
DGENRE=Country
TTITLE0=Travis Tritt - Country Club (complete album)_ALBW
TTITLE1=Travis Tritt - Country Club (complete album)_ALBW
TTITLE2=Travis Tritt - Country Club (complete album)_ALBW
TTITLE3=Travis Tritt - Country Club (complete album)_ALBW
TTITLE4=Travis Tritt - Country Club (complete album)_ALBW
TTITLE5=Travis Tritt - Country Club (complete album)_ALBW
TTITLE6=Travis Tritt - Country Club (complete album)_ALBW
TTITLE7=Travis Tritt - Country Club (complete album)_ALBW
TTITLE8=Travis Tritt - Country Club (complete album)_ALBW
TTITLE9=Travis Tritt - Country Club (complete album)_ALBW
EXTD=
EXTT0=
EXTT1=
EXTT2=
EXTT3=
EXTT4=
EXTT5=
EXTT6=
EXTT7=
EXTT8=
EXTT9=
PLAYORDER=
